<?xml version="1.0" encoding="UTF-8"?>
<svg xmlns="http://www.w3.org/2000/svg" version="1.1" viewBox="0 0 150 150">
  <defs>
    <style>
      .cls-1 {
        fill: #126d9a;
      }

      .cls-2 {
        font-family: Ubuntu-Medium, Ubuntu;
        font-size: 19.5px;
        font-weight: 500;
        letter-spacing: .1em;
      }

      .cls-2, .cls-3 {
        fill: #fff;
      }
    </style>
  </defs>
  <!-- Generator: Adobe Illustrator 28.7.1, SVG Export Plug-In . SVG Version: 1.2.0 Build 142)  -->
  <g>
    <g id="Layer_1">
      <ellipse class="cls-1" cx="75" cy="75" rx="71.9" ry="70.7"/>
      <path class="cls-3" d="M105.7,55.3c-13.2,7.1-27.4,15-42.9,13.7-5.9-.5-12.2-2.9-15.2-8.4-3.6-6.6-.1-12.9,5.3-16.9,4.8,3.3,11.6,4.5,16.9,2,3.2-1.5,6.4-4.8,2.4-7.2-10.9-5.7-29.9,5.2-29,18.1,1.4,12.6,15.7,16.3,26.4,15.5,13.3-1.1,25.9-8.3,36.7-15.6.7-.5,0-1.6-.7-1.2ZM63.1,39.6c1.8-.2,5-.3,6.6.4,2.1.9,1.2,2.4.1,3.2-3.9,2.7-11,1.2-15.6-.4,2.7-1.7,5.7-2.8,8.8-3.2Z"/>
      <text class="cls-2" transform="translate(29 99)"><tspan x="0" y="0">ecocase</tspan></text>
    </g>
  </g>
</svg>